<svg xmlns="http://www.w3.org/2000/svg" viewBox="0 0 36 24" role="img" aria-label="Bandera de Estados Unidos">
  <rect width="36" height="24" rx="2.6" fill="#FFFFFF"/>
  <g>
    <rect y="0" width="36" height="1.846" fill="#B22234"/>
    <rect y="3.692" width="36" height="1.846" fill="#B22234"/>
    <rect y="7.384" width="36" height="1.846" fill="#B22234"/>
    <rect y="11.076" width="36" height="1.846" fill="#B22234"/>
    <rect y="14.768" width="36" height="1.846" fill="#B22234"/>
    <rect y="18.460" width="36" height="1.846" fill="#B22234"/>
    <rect y="22.152" width="36" height="1.846" fill="#B22234"/>
  </g>
  <rect width="14.4" height="10.2" fill="#3C3B6E"/>
  <g fill="#FFFFFF" opacity="0.95">
    <circle cx="1.9" cy="1.7" r="0.38"/>
    <circle cx="4.6" cy="1.7" r="0.38"/>
    <circle cx="7.3" cy="1.7" r="0.38"/>
    <circle cx="10.0" cy="1.7" r="0.38"/>
    <circle cx="12.7" cy="1.7" r="0.38"/>
    <circle cx="3.2" cy="3.5" r="0.38"/>
    <circle cx="5.9" cy="3.5" r="0.38"/>
    <circle cx="8.6" cy="3.5" r="0.38"/>
    <circle cx="11.3" cy="3.5" r="0.38"/>
    <circle cx="14.0" cy="3.5" r="0.38"/>
    <circle cx="1.9" cy="5.3" r="0.38"/>
    <circle cx="4.6" cy="5.3" r="0.38"/>
    <circle cx="7.3" cy="5.3" r="0.38"/>
    <circle cx="10.0" cy="5.3" r="0.38"/>
    <circle cx="12.7" cy="5.3" r="0.38"/>
    <circle cx="3.2" cy="7.1" r="0.38"/>
    <circle cx="5.9" cy="7.1" r="0.38"/>
    <circle cx="8.6" cy="7.1" r="0.38"/>
    <circle cx="11.3" cy="7.1" r="0.38"/>
    <circle cx="14.0" cy="7.1" r="0.38"/>
  </g>
</svg>
